<?xml version="1.0" encoding="UTF-8" standalone="no"?>
<svg xmlns="http://www.w3.org/2000/svg" width="1237" height="280" viewBox="0 0 1237 280">
  <title>HomeOn logo extracted from photo</title>
  <g fill-rule="evenodd">
    <path d="M 1232.00 229.00 L 1231.00 230.00 Z M 1168.00 229.00 L 1163.00 230.00 L 1168.00 230.00 Z M 1210.00 221.00 L 1210.00 229.00 L 1211.00 230.00 L 1217.00 230.00 L 1213.00 230.00 L 1210.00 227.00 Z M 1146.00 219.00 L 1146.00 230.00 L 1151.00 230.00 L 1149.00 230.00 L 1147.00 228.00 Z M 205.00 176.00 L 203.00 180.00 L 196.00 187.00 L 190.00 190.00 L 198.00 186.00 L 204.00 179.00 Z M 162.00 169.00 L 165.00 175.00 L 173.00 180.00 L 169.00 178.00 L 163.00 172.00 Z M 194.00 162.00 L 194.00 169.00 L 192.00 174.00 L 187.00 179.00 L 183.00 181.00 L 175.00 181.00 L 183.00 181.00 L 189.00 178.00 L 194.00 171.00 Z M 206.00 158.00 L 207.00 170.00 Z M 1098.00 148.00 L 1099.00 153.00 Z M 1001.00 145.00 L 1000.00 158.00 Z M 198.00 144.00 L 204.00 152.00 L 205.00 156.00 L 204.00 152.00 Z M 1179.00 142.00 L 1175.00 143.00 Z M 1142.00 153.00 L 1142.00 145.00 L 1144.00 142.00 L 1146.00 141.00 L 1161.00 141.00 L 1143.00 141.00 L 1142.00 142.00 Z M 738.00 143.00 L 740.00 151.00 L 740.00 162.00 L 742.00 172.00 L 743.00 213.00 L 744.00 214.00 L 744.00 231.00 L 745.00 232.00 L 750.00 232.00 L 751.00 231.00 L 762.00 231.00 L 763.00 232.00 L 764.00 231.00 L 766.00 232.00 L 767.00 231.00 L 763.00 168.00 L 770.00 162.00 L 780.00 159.00 L 792.00 160.00 L 796.00 162.00 L 802.00 169.00 L 803.00 182.00 L 804.00 183.00 L 804.00 197.00 L 805.00 198.00 L 806.00 231.00 L 828.00 231.00 L 825.00 181.00 L 824.00 180.00 L 823.00 168.00 L 830.00 162.00 L 837.00 159.00 L 851.00 159.00 L 854.00 160.00 L 859.00 164.00 L 863.00 170.00 L 866.00 231.00 L 888.00 231.00 L 888.00 218.00 L 887.00 217.00 L 887.00 202.00 L 886.00 201.00 L 884.00 167.00 L 878.00 152.00 L 870.00 144.00 L 859.00 140.00 L 841.00 140.00 L 828.00 145.00 L 818.00 153.00 L 811.00 146.00 L 806.00 143.00 L 796.00 140.00 L 784.00 140.00 L 774.00 143.00 L 767.00 147.00 L 762.00 152.00 L 760.00 150.00 L 759.00 142.00 L 739.00 142.00 Z M 654.00 144.00 L 647.00 149.00 L 641.00 156.00 L 637.00 164.00 L 634.00 176.00 L 634.00 190.00 L 636.00 200.00 L 644.00 215.00 L 656.00 226.00 L 669.00 232.00 L 679.00 234.00 L 697.00 233.00 L 709.00 229.00 L 715.00 225.00 L 719.00 221.00 L 725.00 211.00 L 726.00 206.00 L 728.00 203.00 L 728.00 196.00 L 729.00 195.00 L 729.00 183.00 L 727.00 173.00 L 719.00 158.00 L 710.00 149.00 L 702.00 144.00 L 694.00 141.00 L 674.00 139.00 L 673.00 140.00 L 666.00 140.00 Z M 672.00 157.00 L 686.00 156.00 L 693.00 159.00 L 701.00 167.00 L 706.00 177.00 L 707.00 196.00 L 705.00 202.00 L 700.00 209.00 L 693.00 215.00 L 690.00 216.00 L 675.00 215.00 L 670.00 212.00 L 661.00 203.00 L 659.00 199.00 L 656.00 185.00 L 657.00 173.00 L 661.00 165.00 L 665.00 161.00 Z M 915.00 146.00 L 908.00 153.00 L 903.00 162.00 L 900.00 174.00 L 900.00 183.00 L 899.00 184.00 L 900.00 186.00 L 900.00 195.00 L 903.00 204.00 L 910.00 216.00 L 917.00 223.00 L 925.00 228.00 L 938.00 232.00 L 945.00 232.00 L 946.00 233.00 L 956.00 233.00 L 961.00 231.00 L 966.00 231.00 L 986.00 222.00 L 982.00 217.00 L 981.00 213.00 L 977.00 208.00 L 975.00 208.00 L 966.00 214.00 L 955.00 217.00 L 941.00 217.00 L 935.00 215.00 L 924.00 205.00 L 919.00 195.00 L 922.00 191.00 L 933.00 191.00 L 934.00 192.00 L 939.00 192.00 L 940.00 191.00 L 941.00 192.00 L 986.00 192.00 L 987.00 191.00 L 987.00 185.00 L 986.00 184.00 L 985.00 173.00 L 983.00 167.00 L 975.00 153.00 L 969.00 147.00 L 958.00 141.00 L 943.00 138.00 L 928.00 140.00 Z M 965.00 171.00 L 965.00 176.00 L 962.00 179.00 L 960.00 178.00 L 927.00 178.00 L 926.00 179.00 L 921.00 179.00 L 918.00 176.00 L 921.00 166.00 L 928.00 158.00 L 936.00 154.00 L 942.00 154.00 L 943.00 153.00 L 955.00 157.00 L 961.00 163.00 Z M 166.00 135.00 L 156.00 141.00 L 150.00 148.00 L 148.00 153.00 L 147.00 164.00 L 149.00 173.00 L 153.00 180.00 L 159.00 186.00 L 169.00 190.00 L 173.00 193.00 L 172.00 191.00 L 161.00 187.00 L 154.00 180.00 L 148.00 168.00 L 148.00 155.00 L 149.00 152.00 L 158.00 140.00 L 167.00 135.00 L 169.00 135.00 Z M 1027.00 110.00 L 1023.00 112.00 L 1011.00 123.00 L 1005.00 134.00 L 1005.00 137.00 L 1002.00 143.00 L 1004.00 140.00 L 1005.00 135.00 L 1012.00 123.00 L 1022.00 113.00 Z M 1044.00 103.00 L 1041.00 103.00 L 1033.00 107.00 Z M 513.00 102.00 L 512.00 105.00 L 514.00 114.00 L 515.00 136.00 L 516.00 137.00 L 516.00 147.00 L 517.00 148.00 L 517.00 162.00 L 518.00 163.00 L 518.00 175.00 L 519.00 176.00 L 519.00 195.00 L 520.00 196.00 L 522.00 231.00 L 523.00 232.00 L 545.00 232.00 L 546.00 231.00 L 545.00 230.00 L 546.00 226.00 L 544.00 218.00 L 544.00 203.00 L 543.00 202.00 L 543.00 193.00 L 542.00 192.00 L 542.00 183.00 L 541.00 182.00 L 541.00 179.00 L 543.00 177.00 L 590.00 177.00 L 595.00 176.00 L 598.00 179.00 L 599.00 207.00 L 600.00 208.00 L 600.00 228.00 L 602.00 232.00 L 606.00 231.00 L 607.00 232.00 L 623.00 232.00 L 623.00 219.00 L 622.00 218.00 L 620.00 186.00 L 619.00 185.00 L 619.00 166.00 L 618.00 165.00 L 617.00 135.00 L 615.00 125.00 L 614.00 102.00 L 592.00 102.00 L 593.00 125.00 L 594.00 126.00 L 594.00 136.00 L 595.00 137.00 L 595.00 146.00 L 596.00 147.00 L 596.00 156.00 L 594.00 158.00 L 593.00 157.00 L 543.00 157.00 L 542.00 158.00 L 539.00 155.00 L 539.00 140.00 L 538.00 139.00 L 536.00 103.00 L 516.00 103.00 Z M 4.00 124.00 L 6.00 125.00 L 13.00 125.00 L 14.00 124.00 L 20.00 125.00 L 21.00 124.00 L 57.00 124.00 L 58.00 123.00 L 59.00 124.00 L 61.00 123.00 L 64.00 124.00 L 67.00 127.00 L 67.00 144.00 L 68.00 145.00 L 68.00 159.00 L 69.00 160.00 L 70.00 183.00 L 71.00 184.00 L 71.00 193.00 L 72.00 194.00 L 72.00 207.00 L 73.00 208.00 L 73.00 221.00 L 74.00 222.00 L 73.00 227.00 L 74.00 228.00 L 75.00 250.00 L 76.00 251.00 L 77.00 278.00 L 415.00 278.00 L 412.00 220.00 L 410.00 210.00 L 407.00 151.00 L 406.00 150.00 L 404.00 125.00 L 406.00 123.00 L 410.00 124.00 L 466.00 125.00 L 465.00 123.00 L 458.00 121.00 L 429.00 105.00 L 408.00 95.00 L 406.00 93.00 L 404.00 93.00 L 402.00 91.00 L 369.00 75.00 L 367.00 73.00 L 361.00 71.00 L 348.00 63.00 L 329.00 54.00 L 318.00 47.00 L 303.00 40.00 L 301.00 38.00 L 297.00 37.00 L 269.00 21.00 L 255.00 15.00 L 236.00 4.00 L 233.00 4.00 L 226.00 8.00 L 221.00 9.00 L 204.00 18.00 L 193.00 22.00 L 182.00 29.00 L 180.00 29.00 L 164.00 38.00 L 162.00 38.00 L 157.00 42.00 L 155.00 42.00 L 148.00 47.00 L 135.00 53.00 L 117.00 64.00 L 113.00 65.00 L 108.00 69.00 L 82.00 82.00 L 57.00 97.00 L 6.00 122.00 Z M 316.00 180.00 L 318.00 182.00 L 317.00 183.00 L 318.00 210.00 L 319.00 211.00 L 318.00 212.00 L 319.00 213.00 L 319.00 229.00 L 320.00 230.00 L 320.00 240.00 L 321.00 241.00 L 321.00 246.00 L 320.00 247.00 L 321.00 248.00 L 323.00 273.00 L 320.00 276.00 L 318.00 275.00 L 295.00 275.00 L 293.00 273.00 L 292.00 268.00 L 292.00 257.00 L 291.00 256.00 L 292.00 250.00 L 290.00 240.00 L 288.00 202.00 L 314.00 180.00 Z M 317.00 127.00 L 321.00 127.00 L 329.00 130.00 L 335.00 136.00 L 338.00 144.00 L 335.00 154.00 L 330.00 159.00 L 326.00 161.00 L 318.00 161.00 L 314.00 159.00 L 308.00 153.00 L 305.00 148.00 L 304.00 142.00 L 306.00 136.00 L 313.00 129.00 Z M 87.00 108.00 L 90.00 105.00 L 117.00 92.00 L 126.00 86.00 L 134.00 83.00 L 150.00 72.00 L 183.00 55.00 L 186.00 52.00 L 203.00 44.00 L 212.00 38.00 L 224.00 33.00 L 233.00 27.00 L 244.00 30.00 L 306.00 64.00 L 314.00 67.00 L 319.00 71.00 L 373.00 98.00 L 380.00 104.00 L 382.00 146.00 L 383.00 147.00 L 383.00 157.00 L 384.00 158.00 L 385.00 188.00 L 386.00 189.00 L 387.00 217.00 L 388.00 218.00 L 388.00 237.00 L 389.00 238.00 L 390.00 261.00 L 391.00 262.00 L 392.00 273.00 L 390.00 275.00 L 384.00 275.00 L 383.00 274.00 L 340.00 275.00 L 337.00 272.00 L 337.00 255.00 L 336.00 254.00 L 335.00 228.00 L 334.00 227.00 L 334.00 218.00 L 333.00 217.00 L 333.00 205.00 L 332.00 204.00 L 330.00 174.00 L 333.00 171.00 L 339.00 169.00 L 345.00 164.00 L 350.00 152.00 L 350.00 140.00 L 345.00 128.00 L 335.00 119.00 L 325.00 115.00 L 312.00 115.00 L 305.00 118.00 L 298.00 124.00 L 294.00 131.00 L 292.00 138.00 L 292.00 146.00 L 294.00 153.00 L 299.00 161.00 L 305.00 167.00 L 301.00 172.00 L 286.00 183.00 L 284.00 186.00 L 272.00 196.00 L 275.00 242.00 L 276.00 243.00 L 277.00 263.00 L 278.00 264.00 L 278.00 274.00 L 276.00 276.00 L 268.00 276.00 L 267.00 275.00 L 261.00 276.00 L 258.00 273.00 L 256.00 233.00 L 255.00 232.00 L 255.00 220.00 L 254.00 219.00 L 254.00 207.00 L 253.00 206.00 L 253.00 191.00 L 252.00 190.00 L 252.00 176.00 L 251.00 175.00 L 250.00 154.00 L 249.00 153.00 L 249.00 140.00 L 250.00 171.00 L 251.00 172.00 L 252.00 196.00 L 253.00 197.00 L 253.00 217.00 L 251.00 219.00 L 250.00 218.00 L 248.00 219.00 L 249.00 223.00 L 253.00 227.00 L 248.00 229.00 L 245.00 219.00 L 245.00 215.00 L 250.00 212.00 L 244.00 208.00 L 244.00 205.00 L 248.00 203.00 L 243.00 201.00 L 244.00 196.00 L 242.00 194.00 L 241.00 190.00 L 244.00 186.00 L 241.00 182.00 L 240.00 178.00 L 241.00 177.00 L 240.00 176.00 L 241.00 168.00 L 238.00 161.00 L 236.00 139.00 L 234.00 135.00 L 236.00 169.00 L 237.00 170.00 L 237.00 184.00 L 238.00 185.00 L 240.00 235.00 L 242.00 245.00 L 242.00 259.00 L 243.00 260.00 L 244.00 273.00 L 242.00 275.00 L 232.00 275.00 L 231.00 274.00 L 196.00 275.00 L 194.00 273.00 L 193.00 270.00 L 193.00 255.00 L 192.00 254.00 L 192.00 236.00 L 190.00 227.00 L 189.00 208.00 L 190.00 235.00 L 191.00 236.00 L 191.00 242.00 L 189.00 243.00 L 191.00 244.00 L 188.00 245.00 L 189.00 246.00 L 186.00 249.00 L 182.00 245.00 L 186.00 244.00 L 186.00 243.00 L 180.00 236.00 L 183.00 233.00 L 181.00 231.00 L 180.00 224.00 L 178.00 220.00 L 178.00 213.00 L 175.00 204.00 L 174.00 195.00 L 176.00 251.00 L 177.00 252.00 L 179.00 273.00 L 177.00 275.00 L 137.00 275.00 L 136.00 274.00 L 134.00 275.00 L 103.00 275.00 L 100.00 270.00 L 97.00 214.00 L 95.00 207.00 L 95.00 192.00 L 94.00 191.00 L 94.00 179.00 L 93.00 178.00 L 93.00 167.00 L 92.00 166.00 L 92.00 151.00 L 91.00 150.00 Z" fill="rgb(58,63,71)"/>
    <path d="M 1144.00 143.00 L 1143.00 145.00 L 1143.00 162.00 L 1144.00 163.00 L 1144.00 182.00 L 1145.00 183.00 L 1145.00 198.00 L 1146.00 199.00 L 1146.00 218.00 L 1147.00 219.00 L 1147.00 225.00 L 1149.00 229.00 L 1152.00 230.00 L 1167.00 229.00 L 1165.00 185.00 L 1164.00 184.00 L 1164.00 167.00 L 1163.00 166.00 L 1166.00 163.00 L 1180.00 157.00 L 1195.00 158.00 L 1199.00 161.00 L 1201.00 161.00 L 1205.00 165.00 L 1208.00 171.00 L 1211.00 227.00 L 1213.00 229.00 L 1223.00 230.00 L 1224.00 229.00 L 1230.00 230.00 L 1232.00 228.00 L 1231.00 211.00 L 1230.00 210.00 L 1230.00 190.00 L 1229.00 189.00 L 1228.00 166.00 L 1223.00 153.00 L 1215.00 145.00 L 1206.00 141.00 L 1190.00 140.00 L 1174.00 144.00 L 1164.00 150.00 L 1162.00 148.00 L 1161.00 142.00 L 1146.00 142.00 Z M 170.00 135.00 L 161.00 139.00 L 155.00 144.00 L 149.00 155.00 L 149.00 168.00 L 153.00 177.00 L 161.00 186.00 L 172.00 190.00 L 174.00 192.00 L 176.00 204.00 L 179.00 213.00 L 179.00 220.00 L 181.00 224.00 L 182.00 231.00 L 184.00 233.00 L 181.00 236.00 L 187.00 243.00 L 186.00 245.00 L 183.00 245.00 L 186.00 248.00 L 188.00 246.00 L 187.00 245.00 L 190.00 244.00 L 188.00 243.00 L 190.00 242.00 L 190.00 236.00 L 189.00 235.00 L 187.00 192.00 L 190.00 189.00 L 196.00 186.00 L 204.00 177.00 L 206.00 171.00 L 206.00 163.00 L 204.00 154.00 L 196.00 143.00 L 184.00 136.00 Z M 171.00 147.00 L 179.00 146.00 L 186.00 149.00 L 192.00 155.00 L 194.00 159.00 L 195.00 171.00 L 193.00 175.00 L 186.00 181.00 L 183.00 182.00 L 172.00 181.00 L 166.00 177.00 L 161.00 170.00 L 160.00 167.00 L 161.00 156.00 L 167.00 149.00 Z M 1034.00 107.00 L 1022.00 114.00 L 1010.00 127.00 L 1006.00 135.00 L 1005.00 140.00 L 1002.00 144.00 L 1001.00 158.00 L 1000.00 159.00 L 1001.00 160.00 L 1000.00 161.00 L 1001.00 176.00 L 1005.00 192.00 L 1008.00 198.00 L 1015.00 207.00 L 1016.00 210.00 L 1028.00 221.00 L 1046.00 230.00 L 1061.00 233.00 L 1075.00 233.00 L 1076.00 232.00 L 1087.00 231.00 L 1103.00 224.00 L 1119.00 207.00 L 1123.00 199.00 L 1127.00 183.00 L 1127.00 168.00 L 1126.00 167.00 L 1125.00 154.00 L 1121.00 141.00 L 1116.00 131.00 L 1111.00 124.00 L 1103.00 116.00 L 1094.00 110.00 L 1083.00 105.00 L 1069.00 102.00 L 1051.00 102.00 Z M 1052.00 123.00 L 1059.00 123.00 L 1060.00 122.00 L 1064.00 123.00 L 1066.00 122.00 L 1071.00 123.00 L 1082.00 128.00 L 1094.00 140.00 L 1099.00 148.00 L 1099.00 151.00 L 1101.00 155.00 L 1103.00 174.00 L 1102.00 175.00 L 1102.00 184.00 L 1097.00 197.00 L 1086.00 208.00 L 1075.00 212.00 L 1070.00 212.00 L 1069.00 213.00 L 1056.00 212.00 L 1043.00 206.00 L 1032.00 194.00 L 1025.00 178.00 L 1024.00 155.00 L 1028.00 142.00 L 1036.00 131.00 L 1045.00 125.00 Z M 235.00 75.00 L 223.00 78.00 L 215.00 85.00 L 210.00 95.00 L 210.00 100.00 L 209.00 101.00 L 210.00 104.00 L 209.00 105.00 L 211.00 113.00 L 218.00 124.00 L 229.00 130.00 L 234.00 129.00 L 236.00 131.00 L 234.00 134.00 L 237.00 139.00 L 239.00 161.00 L 242.00 168.00 L 241.00 171.00 L 242.00 173.00 L 241.00 176.00 L 242.00 177.00 L 241.00 178.00 L 242.00 182.00 L 245.00 186.00 L 242.00 190.00 L 243.00 194.00 L 245.00 196.00 L 244.00 201.00 L 247.00 201.00 L 249.00 203.00 L 245.00 205.00 L 245.00 208.00 L 251.00 212.00 L 246.00 215.00 L 248.00 228.00 L 252.00 227.00 L 248.00 223.00 L 247.00 219.00 L 249.00 217.00 L 251.00 218.00 L 252.00 217.00 L 252.00 197.00 L 251.00 196.00 L 251.00 183.00 L 250.00 182.00 L 249.00 157.00 L 248.00 156.00 L 248.00 134.00 L 247.00 133.00 L 238.00 133.00 L 236.00 130.00 L 241.00 125.00 L 247.00 130.00 L 255.00 129.00 L 265.00 119.00 L 268.00 109.00 L 267.00 108.00 L 267.00 100.00 L 262.00 89.00 L 253.00 80.00 L 245.00 76.00 Z M 232.00 87.00 L 241.00 87.00 L 246.00 89.00 L 251.00 93.00 L 254.00 98.00 L 256.00 105.00 L 255.00 106.00 L 255.00 111.00 L 252.00 116.00 L 245.00 121.00 L 239.00 122.00 L 231.00 120.00 L 226.00 115.00 L 222.00 108.00 L 223.00 96.00 Z" fill="rgb(61,122,199)"/>
  </g>
</svg>
